# xmcd
#
# Track frame offsets:
#	150
#	17545
#	35590
#	51575
#
# Disc length: 1024 seconds
#
# Revision: 0
# Processed by: cddbd v1.5.2PL0 Copyright (c) Steve Scherf et al.
# Submitted via: audiograbber 1.83.01
#
DISCID=2e03fe04
DTITLE=Suurl‰hettil‰‰t - Syv‰‰ Purppuraa - Vesi Vie [CDS)
DYEAR=1995
DGENRE=Pop
TTITLE0=Syv‰‰ Purppuraa
TTITLE1=Syv‰‰ Purppuraa (Nikomix)
TTITLE2=Vesi Vie
TTITLE3=Kuka Pys‰ytt‰isi Kellot (Mitromix)
EXTD=TR.
EXTT0=
EXTT1=
EXTT2=
EXTT3=
PLAYORDER=
